HIERARCHY
ROOT Hips
{
  OFFSET 1.44925e-005 102.336 -0.101585
  CHANNELS 6 Xposition Yposition Zposition Zrotation Xrotation Yrotation
  JOINT LeftUpLeg
  {
    OFFSET 8.9458 -8.66707 0.101652
    CHANNELS 3 Zrotation Xrotation Yrotation
    JOINT LeftLeg
    {
      OFFSET 0 -44.4227 1.3727
      CHANNELS 3 Zrotation Xrotation Yrotation
      JOINT LeftFoot
      {
        OFFSET -0.253549 -42.0924 -1.46059
        CHANNELS 3 Zrotation Xrotation Yrotation
        JOINT LeftToes
        {
          OFFSET -0.04 -4.41509 8.4991
          CHANNELS 3 Zrotation Xrotation Yrotation
          End Site
          {
            OFFSET 0.08 -0.047448 9.77979
          }
        }
      }
    }
  }
  JOINT Spine
  {
    OFFSET 0 11.8905 0
    CHANNELS 3 Zrotation Xrotation Yrotation
    JOINT Spine1
    {
      OFFSET 0 25.6574 0.127663
      CHANNELS 3 Zrotation Xrotation Yrotation
      JOINT RightShoulder
      {
        OFFSET -8.99 -0.362252 -0.22
        CHANNELS 3 Zrotation Xrotation Yrotation
        JOINT RightArm
        {
          OFFSET -10.2827 -0.00338 0.322123
          CHANNELS 3 Zrotation Xrotation Yrotation
          JOINT RightForeArm
          {
            OFFSET -26.364 0.099144 -1.42434
            CHANNELS 3 Zrotation Xrotation Yrotation
            JOINT RightHand
            {
              OFFSET -22.0324 0.085362 1.02216
              CHANNELS 3 Zrotation Xrotation Yrotation
              End Site
              {
                OFFSET -13.3284 -0.6 1.50291
              }
            }
          }
        }
      }
      JOINT LeftShoulder1
      {
        OFFSET 8.99 -0.362252 -0.22
        CHANNELS 3 Zrotation Xrotation Yrotation
        JOINT LeftArm
        {
          OFFSET 10.2827 -0.00337999 0.322123
          CHANNELS 3 Zrotation Xrotation Yrotation
          JOINT LeftForeArm
          {
            OFFSET 26.2597 0.099144 -1.42434
            CHANNELS 3 Zrotation Xrotation Yrotation
            JOINT LeftHand
            {
              OFFSET 22.0902 0.085362 1.02216
              CHANNELS 3 Zrotation Xrotation Yrotation
              End Site
              {
                OFFSET 13.419 -0.6 1.50291
              }
            }
          }
        }
      }
      JOINT Head
      {
        OFFSET 0 8.73416 0.011341
        CHANNELS 3 Zrotation Xrotation Yrotation
        End Site
        {
          OFFSET -0.29 12.7742 2.51395
        }
      }
    }
  }
  JOINT RightUpLeg
  {
    OFFSET -8.9458 -8.66707 0.101652
    CHANNELS 3 Zrotation Xrotation Yrotation
    JOINT RightLeg
    {
      OFFSET 0 -44.4227 1.3727
      CHANNELS 3 Zrotation Xrotation Yrotation
      JOINT RightFoot
      {
        OFFSET 0.253549 -42.0924 -1.46059
        CHANNELS 3 Zrotation Xrotation Yrotation
        JOINT RightToes
        {
          OFFSET 0.04 -4.41509 8.4991
          CHANNELS 3 Zrotation Xrotation Yrotation
          End Site
          {
            OFFSET -0.08 -0.137448 9.77979
          }
        }
      }
    }
  }
}
MOTION
Frames:	7
Frame Time:	0.0333333
263.601 103.252 5.32211 -4.9073 0.0680688 -93.9844 -1.12805 3.26618 3.11936 -0.537746 9.86394 23.5905 -2.29297 -12.324 -0.0327183 -1.33828e-009 8.75237e-006 -1.46798e-008 1.2036 8.10855 0.884452 -1.57543 -0.729247 1.26472 35.9751 1.65312 -0.0851617 43.3735 -19.5768 6.82121 8.07561 39.8543 7.74026 -9.60224 9.37069 1.55168 -44.9754 3.55005 -3.36283 -27.9469 -12.7373 1.78951 -4.43271 33.6196 -15.0734 5.82328 9.61819 -0.917488 1.87675 -5.32068 -5.64103 -0.484212 2.97142 -3.69065 -0.281109 10.2046 -7.46603 1.61086 -12.6387 -0.131954 0.0462048 0.000530889 0.662642 
263.603 103.263 5.32751 -4.88502 0.0831276 -93.9977 -1.11672 3.26143 3.11287 -0.537251 9.82213 23.6079 -2.26584 -12.2953 -0.0327147 -1.33828e-009 8.75237e-006 -1.46798e-008 1.10537 8.09356 0.936568 -1.42319 -0.669364 1.29089 35.9575 1.65312 -0.0851617 43.3739 -19.7524 6.89314 8.09763 40.0392 7.64473 -9.46209 9.36809 1.66926 -44.9893 3.55194 -3.36427 -27.9774 -12.9573 1.63225 -4.52109 33.8937 -14.9003 5.82328 9.61819 -0.917488 1.82308 -5.32371 -5.55906 -0.471162 2.90402 -3.69035 -0.281245 10.2918 -7.4735 1.65359 -12.6141 -0.131941 0.0462048 0.000530889 0.662642 
263.608 103.27 5.33373 -4.86682 0.103327 -93.988 -1.10506 3.24825 3.09807 -0.521919 9.79949 23.6069 -2.23217 -12.2818 -0.0325956 -1.33828e-009 8.75237e-006 -1.46798e-008 0.869173 7.89011 1.00578 -1.09971 -0.23017 1.29942 35.9466 1.65312 -0.0851617 43.3512 -19.7678 7.11791 8.09204 39.9344 7.66171 -9.54126 9.35429 1.80162 -45.064 3.56073 -3.37088 -27.9998 -13.0709 1.2279 -4.66205 34.145 -14.6866 5.82328 9.61819 -0.917488 1.73027 -5.56868 -5.44171 -0.460195 2.866 -3.69358 -0.267028 10.3318 -7.48694 1.70576 -12.5948 -0.131931 0.0462048 0.000530889 0.662642 
263.616 103.276 5.33989 -4.85114 0.120091 -93.9505 -1.09338 3.23965 3.08231 -0.50865 9.7674 23.5797 -2.18985 -12.2639 -0.0320142 -1.33828e-009 8.75237e-006 -1.46798e-008 0.661328 7.51927 1.02251 -0.839115 0.506173 1.26775 35.9557 1.65312 -0.0851617 43.3865 -19.6743 7.47189 8.05736 39.7519 7.74531 -9.79535 9.32749 1.9457 -45.1448 3.57077 -3.37838 -27.9904 -12.738 0.796533 -4.69232 33.9684 -14.7222 5.82328 9.61819 -0.917488 1.6006 -6.16401 -5.45309 -0.451913 2.84964 -3.70647 -0.248142 10.3364 -7.51301 1.728 -12.5616 -0.131914 0.0462048 0.000530889 0.662642 
263.62 103.286 5.34833 -4.81131 0.133372 -93.9353 -1.07705 3.22429 3.07947 -0.516908 9.70028 23.5677 -2.14338 -12.2241 -0.0312824 -1.33828e-009 8.75237e-006 -1.46798e-008 0.587606 7.30959 1.00212 -0.799283 0.914915 1.24222 35.949 1.65312 -0.0851617 43.5027 -19.7079 7.70447 8.03057 39.8552 7.74648 -9.88398 9.31234 2.06958 -45.1403 3.57058 -3.37867 -27.9883 -12.1849 0.638269 -4.58542 33.5375 -14.9774 5.82328 9.61819 -0.917488 1.47718 -6.65978 -5.54727 -0.44129 2.8053 -3.71144 -0.237609 10.3361 -7.53399 1.72095 -12.5063 -0.131886 0.0462048 0.000530889 0.662642 
263.62 103.29 5.35911 -4.75288 0.139368 -93.9452 -1.07256 3.17047 3.07577 -0.52027 9.67983 23.5857 -2.14304 -12.2117 -0.0304423 -1.33828e-009 8.75237e-006 -1.46798e-008 0.584761 7.45429 0.983433 -0.908202 0.654379 1.24079 35.9114 1.65312 -0.0851617 43.598 -19.8267 7.62639 8.00566 40.095 7.71624 -9.7711 9.31836 2.08606 -45.053 3.56049 -3.37205 -28.0248 -11.8728 0.779244 -4.47701 33.2942 -15.1731 5.82328 9.61819 -0.917488 1.44957 -6.64882 -5.52318 -0.439336 2.78197 -3.70316 -0.22554 10.2443 -7.53887 1.71125 -12.4754 -0.13187 0.0462048 0.000530889 0.662642 
263.618 103.28 5.37147 -4.71542 0.132262 -93.9221 -1.09675 3.09187 3.04716 -0.490575 9.75611 23.5924 -2.21028 -12.256 -0.0295332 -1.33828e-009 8.75237e-006 -1.46798e-008 0.573105 7.76388 0.950308 -1.02483 0.111827 1.2184 35.8858 1.65312 -0.0851617 43.6032 -19.8737 7.38369 7.95004 40.2296 7.76459 -9.6783 9.32679 2.05216 -44.971 3.55091 -3.36552 -28.0549 -11.9019 0.97834 -4.46447 33.3241 -15.179 5.82328 9.61819 -0.917488 1.52313 -6.32014 -5.37868 -0.457285 2.82906 -3.70222 -0.204124 10.0657 -7.54755 1.70367 -12.4931 -0.131879 0.0462048 0.000530889 0.662642 
